HIERARCHY
ROOT Hips
{
	OFFSET 0.000000 0.000000 0.000000
	CHANNELS 6 Xposition Yposition Zposition Zrotation Yrotation Xrotation 
	JOINT LHipJoint
	{
		OFFSET 0.000000 0.000000 0.000000
		CHANNELS 3 Zrotation Yrotation Xrotation
		JOINT LeftUpLeg
		{
			OFFSET 1.363060 -1.794630 0.839290
			CHANNELS 3 Zrotation Yrotation Xrotation
			JOINT LeftLeg
			{
				OFFSET 2.448110 -6.726130 0.000000
				CHANNELS 3 Zrotation Yrotation Xrotation
				JOINT LeftFoot
				{
					OFFSET 2.562200 -7.039590 0.000000
					CHANNELS 3 Zrotation Yrotation Xrotation
					JOINT LeftToeBase
					{
						OFFSET 0.157640 -0.433110 2.322550
						CHANNELS 3 Zrotation Yrotation Xrotation
						End Site
						{
							OFFSET 0.000000 0.000000 0.000000
						}
					}
				}
			}
		}
	}
	JOINT RHipJoint
	{
		OFFSET 0.000000 0.000000 0.000000
		CHANNELS 3 Zrotation Yrotation Xrotation
		JOINT RightUpLeg
		{
			OFFSET -1.305520 -1.794630 0.839290
			CHANNELS 3 Zrotation Yrotation Xrotation
			JOINT RightLeg
			{
				OFFSET -2.542530 -6.985550 0.000000
				CHANNELS 3 Zrotation Yrotation Xrotation
				JOINT RightFoot
				{
					OFFSET -2.568260 -7.056230 0.000000
					CHANNELS 3 Zrotation Yrotation Xrotation
					JOINT RightToeBase
					{
						OFFSET -0.164730 -0.452590 2.363150
						CHANNELS 3 Zrotation Yrotation Xrotation
						End Site
						{
							OFFSET 0.000000 0.000000 0.000000
						}
					}
				}
			}
		}
	}
	JOINT LowerBack
	{
		OFFSET 0.000000 0.000000 0.000000
		CHANNELS 3 Zrotation Yrotation Xrotation
		JOINT Spine
		{
			OFFSET 0.028270 2.035590 -0.193380
			CHANNELS 3 Zrotation Yrotation Xrotation
			JOINT Spine1
			{
				OFFSET 0.056720 2.048850 -0.042750
				CHANNELS 3 Zrotation Yrotation Xrotation
				JOINT Neck
				{
					OFFSET 0.000000 0.000000 0.000000
					CHANNELS 3 Zrotation Yrotation Xrotation
					JOINT Neck1
					{
						OFFSET -0.054170 1.746240 0.172020
						CHANNELS 3 Zrotation Yrotation Xrotation
						JOINT Head
						{
							OFFSET 0.104070 1.761360 -0.123970
							CHANNELS 3 Zrotation Yrotation Xrotation
							End Site
							{
								OFFSET 0.000000 0.000000 0.000000
							}
						}
					}
				}
				JOINT LeftShoulder
				{
					OFFSET 0.000000 0.000000 0.000000
					CHANNELS 3 Zrotation Yrotation Xrotation
					JOINT LeftArm
					{
						OFFSET 3.362410 1.200890 -0.311210
						CHANNELS 3 Zrotation Yrotation Xrotation
						JOINT LeftForeArm
						{
							OFFSET 4.983000 -0.000000 -0.000000
							CHANNELS 3 Zrotation Yrotation Xrotation
							JOINT LeftHand
							{
								OFFSET 3.483560 -0.000000 -0.000000
								CHANNELS 3 Zrotation Yrotation Xrotation
								JOINT LeftFingerBase
								{
									OFFSET 0.000000 0.000000 0.000000
									CHANNELS 3 Zrotation Yrotation Xrotation
									JOINT LeftHandIndex1
									{
										OFFSET 0.715260 -0.000000 -0.000000
										CHANNELS 3 Zrotation Yrotation Xrotation
										End Site
										{
											OFFSET 0.000000 0.000000 0.000000
										}
									}
								}
								JOINT LThumb
								{
									OFFSET 0.000000 0.000000 0.000000
									CHANNELS 3 Zrotation Yrotation Xrotation
									End Site
									{
										OFFSET 0.000000 0.000000 0.000000
									}
								}
							}
						}
					}
				}
				JOINT RightShoulder
				{
					OFFSET 0.000000 0.000000 0.000000
					CHANNELS 3 Zrotation Yrotation Xrotation
					JOINT RightArm
					{
						OFFSET -3.136600 1.374050 -0.404650
						CHANNELS 3 Zrotation Yrotation Xrotation
						JOINT RightForeArm
						{
							OFFSET -5.241900 -0.000000 -0.000000
							CHANNELS 3 Zrotation Yrotation Xrotation
							JOINT RightHand
							{
								OFFSET -3.444170 -0.000000 -0.000000
								CHANNELS 3 Zrotation Yrotation Xrotation
								JOINT RightFingerBase
								{
									OFFSET 0.000000 0.000000 0.000000
									CHANNELS 3 Zrotation Yrotation Xrotation
									JOINT RightHandIndex1
									{
										OFFSET -0.622530 -0.000000 -0.000000
										CHANNELS 3 Zrotation Yrotation Xrotation
										End Site
										{
											OFFSET 0.000000 0.000000 0.000000
										}
									}
								}
								JOINT RThumb
								{
									OFFSET 0.000000 0.000000 0.000000
									CHANNELS 3 Zrotation Yrotation Xrotation
									End Site
									{
										OFFSET 0.000000 0.000000 0.000000
									}
								}
							}
						}
					}
				}
			}
		}
	}
}
MOTION
Frames: 7
Frame Time: 0.008333
2.114966 16.695829 0.182350 68.638565 86.640985 74.535756 -12.766752 4.814847 -1.181383 2.361581 19.840543 -5.198852 -0.008787 2.577872 46.724088 0.884479 -12.121574 24.122501 -6.400300 -0.000000 -71.937001 7.346265 -1.309069 2.594374 18.191484 -0.211672 -31.794080 2.149009 -0.342894 21.084083 -4.308718 -15.798883 -13.838858 -179.482600 0.000001 -9.707900 4.972157 -7.714850 -3.181354 1.188082 -8.133446 -3.455399 -4.158613 -8.251132 0.637310 9.018024 -20.252322 -10.734953 -2.268342 -0.131593 -0.720279 0.000000 0.000000 0.000000 11.211713 -0.291247 -0.671265 -32.208752 -9.974491 -17.772603 -0.801567 -89.227931 -0.142563 13.896284 1.238788 0.081057 -0.146854 0.589182 -0.000000 0.000000 0.000000 0.000000 0.000000 0.000000 0.000000 12.185351 -19.660440 2.035563 63.679845 -29.411892 -19.549460 3.208052 38.970987 -0.013720 -1.262919 -5.749400 0.070829 0.142460 -0.004725 -0.000000 0.000000 0.000000 0.000000 0.000000 0.000000 0.000000 
2.273703 16.631530 0.218364 62.188042 86.760954 67.902102 -13.048291 4.653586 -1.322559 3.484611 20.208249 -6.443241 0.154224 2.756258 49.844006 1.016285 -9.592874 23.661237 -5.214600 -0.000000 -68.280400 7.113156 -1.388051 2.330332 18.989991 -0.472051 -32.548177 2.135623 -0.702998 24.491162 -4.257060 -15.296662 -15.012175 -179.075899 0.000000 -11.310700 5.229560 -7.584906 -2.825840 1.177650 -8.017189 -3.403701 -4.350006 -8.131214 0.591665 9.240279 -20.158650 -10.871778 -2.389009 -0.139774 -0.764211 0.000000 0.000000 0.000000 10.773383 -0.156654 -0.625215 -32.569373 -9.880395 -18.035181 179.169093 -89.905822 179.856293 13.993503 0.956837 0.046233 -0.150474 0.593217 -0.000000 0.000000 0.000000 0.000000 0.000000 0.000000 0.000000 12.739734 -19.514513 2.085161 64.131096 -28.418738 -19.822396 3.176345 38.775957 -0.012853 -1.612959 -5.455386 0.083737 0.139942 -0.007883 -0.000000 0.000000 0.000000 0.000000 0.000000 0.000000 0.000000 
2.426549 16.567449 0.254617 51.176251 86.614480 56.736672 -13.339681 4.573701 -1.460016 4.460204 20.456853 -7.730437 0.274246 3.025859 52.918861 1.159951 -6.494000 22.729743 -3.738100 0.000000 -64.388900 6.890438 -1.355812 2.030200 19.777473 -0.682684 -33.114361 2.084299 -0.978046 27.650062 -4.204228 -14.800667 -16.220741 -178.670000 -0.000000 -12.548701 5.428743 -7.363500 -2.424536 1.133165 -7.806901 -3.346049 -4.581240 -7.914564 0.527095 9.524717 -20.002972 -10.984820 -2.536719 -0.150621 -0.802494 0.000000 0.000000 0.000000 10.346355 -0.041082 -0.584221 -32.983642 -9.735317 -18.238620 179.144799 -89.057739 179.854517 14.183063 0.624416 0.004711 -0.155983 0.596605 -0.000000 0.000000 0.000000 0.000000 0.000000 0.000000 0.000000 13.443694 -19.273560 2.134651 64.510015 -27.306714 -19.891677 3.148860 38.516316 -0.011994 -1.987500 -5.150791 0.095647 0.137129 -0.010763 -0.000000 0.000000 0.000000 0.000000 0.000000 0.000000 0.000000 
2.573831 16.505139 0.291577 33.095954 86.029186 38.563060 -13.433051 4.707922 -1.598086 5.361008 20.667831 -9.081662 0.306084 3.462332 55.892985 1.315325 -3.063538 21.347999 -2.147500 0.000000 -60.260300 6.887281 -1.067139 1.701670 20.642322 -0.729588 -33.405726 1.978586 -1.126112 30.489855 -4.152490 -14.328715 -17.442686 -178.264400 -0.000000 -13.538000 5.816496 -6.964205 -1.972277 1.096424 -7.432549 -3.284655 -4.866989 -7.528856 0.438344 9.863335 -19.768821 -11.068350 -2.710200 -0.164149 -0.833402 0.000000 0.000000 0.000000 9.917967 0.100441 -0.551101 -33.460501 -9.497552 -18.375138 179.121531 -88.227138 179.852164 14.474943 0.233384 -0.045620 -0.162982 0.598916 -0.000000 0.000000 0.000000 0.000000 0.000000 0.000000 0.000000 14.274165 -18.881838 2.191082 64.810530 -26.065782 -19.761450 3.129594 38.177532 -0.011186 -2.394564 -4.833321 0.106755 0.134399 -0.013672 -0.000000 0.000000 0.000000 0.000000 0.000000 0.000000 0.000000 
2.716049 16.445996 0.329588 9.976041 85.448066 15.408535 -12.833167 4.866087 -1.751588 6.446816 20.686941 -10.498469 0.352693 3.927802 58.832385 1.475403 0.437216 19.578693 -0.621601 0.000000 -55.963800 7.496412 -0.642539 1.453193 21.755822 -0.638727 -33.468861 1.902252 -1.254145 32.838124 -4.119241 -13.995444 -18.677257 -177.858700 -0.000000 -14.377700 6.980955 -6.528038 -1.487179 1.209293 -7.065000 -3.224422 -5.217020 -7.145748 0.314370 10.231829 -19.451189 -11.110777 -2.911064 -0.180905 -0.852913 0.000000 0.000000 0.000000 9.481489 0.186443 -0.513539 -34.046316 -9.191384 -18.432748 179.095464 -87.442280 179.849160 14.872639 -0.222479 -0.107328 -0.171356 0.600845 -0.000000 0.000000 0.000000 0.000000 0.000000 0.000000 0.000000 15.202261 -18.408070 2.242522 65.028784 -24.715732 -19.441909 3.116337 37.743287 -0.010429 -2.837549 -4.499281 0.116562 0.131751 -0.016514 -0.000000 0.000000 0.000000 0.000000 0.000000 0.000000 0.000000 
2.853809 16.391254 0.369171 -9.201384 85.533502 -3.827013 -12.125083 4.509817 -1.899266 7.520969 20.185880 -11.922150 0.608533 4.073921 61.782544 1.650044 3.798962 17.517390 0.694200 -0.000000 -51.597400 8.086295 -0.672201 1.339078 22.839595 -0.658232 -33.531324 1.971065 -1.533725 34.640373 -4.139268 -13.861797 -19.994803 -177.453900 -0.000000 -15.144800 8.222914 -6.432486 -1.069038 1.378006 -7.033636 -3.174594 -5.564518 -7.104098 0.171396 10.607133 -19.043941 -11.090005 -3.138580 -0.200926 -0.854753 0.000000 0.000000 0.000000 9.048368 0.046451 -0.445853 -34.732631 -8.876816 -18.382595 179.084316 -86.766765 179.845485 15.372002 -0.743823 -0.182452 -0.183239 0.603468 -0.000000 0.000000 0.000000 0.000000 0.000000 0.000000 0.000000 16.232140 -18.022539 2.252899 65.186725 -23.296921 -18.951600 3.091883 37.209437 -0.009595 -3.316950 -4.146073 0.124561 0.127889 -0.018496 -0.000000 0.000000 0.000000 0.000000 0.000000 0.000000 0.000000 
2.987698 16.341961 0.410689 -20.525782 85.573208 -15.194769 -11.890403 3.997063 -2.008078 8.261575 19.445810 -13.368347 0.903368 4.121935 64.540131 1.837462 6.853412 15.273408 1.707901 -0.000000 -47.318501 8.218321 -0.903312 1.231450 23.692339 -0.649083 -33.488291 2.065707 -1.796674 36.097965 -4.192580 -13.783292 -21.345106 -177.053100 -0.000000 -15.892200 8.839616 -6.439035 -0.715812 1.434637 -7.066089 -3.131777 -5.885514 -7.130768 0.029315 10.994026 -18.538851 -11.010301 -3.378184 -0.222317 -0.841343 0.000000 0.000000 0.000000 8.621668 -0.160942 -0.366772 -35.497143 -8.485505 -18.218723 179.093617 -86.225013 179.841680 15.965644 -1.324908 -0.272240 -0.198021 0.605044 -0.000000 0.000000 0.000000 0.000000 0.000000 0.000000 0.000000 17.331084 -17.594699 2.243365 65.304757 -21.765513 -18.285692 3.059921 36.569166 -0.008734 -3.826146 -3.774943 0.129857 0.123034 -0.020166 -0.000000 0.000000 0.000000 0.000000 0.000000 0.000000 0.000000 
